<svg width="287" height="225" viewBox="0 0 287 225" fill="none" xmlns="http://www.w3.org/2000/svg">
<g filter="url(#filter0_d_202_26)">
<path d="M143 187.5V16.7293C143 14.7997 143 13.8349 143.395 13.5348C143.587 13.3888 143.826 13.3172 144.066 13.3332C144.561 13.3662 145.093 14.1714 146.156 15.7819L269.844 203.218C270.907 204.829 271.439 205.634 271.934 205.667C272.174 205.683 272.413 205.611 272.605 205.465C273 205.165 273 204.2 273 202.271V11" stroke="#75ACA2" stroke-opacity="0.59" stroke-width="19" stroke-linecap="square" shape-rendering="crispEdges"/>
</g>
<g filter="url(#filter1_d_202_26)">
<path d="M4.5 163V173.5H25.5V163H4.5ZM153.5 11C153.5 5.20101 148.799 0.5 143 0.5C137.201 0.5 132.5 5.20101 132.5 11H153.5ZM18.1623 15.867L9.35761 21.5878L9.35761 21.5878L18.1623 15.867ZM79 109.5L87.8047 103.779L87.8047 103.779L79 109.5ZM139.838 203.133L148.642 197.412L148.642 197.412L139.838 203.133ZM142.603 205.423L148.935 213.8L148.935 213.799L142.603 205.423ZM141.929 205.623L142.675 195.15L142.674 195.149L141.929 205.623ZM15.397 13.5767L9.06552 5.20043L9.06552 5.20043L15.397 13.5767ZM16.071 13.377L15.3255 23.8505L15.3255 23.8505L16.071 13.377ZM4.5 16.8041V163H25.5V16.8041H4.5ZM153.5 202.196V11H132.5V202.196H153.5ZM9.35761 21.5878L70.1953 115.221L87.8047 103.779L26.967 10.1462L9.35761 21.5878ZM70.1953 115.221L131.033 208.854L148.642 197.412L87.8047 103.779L70.1953 115.221ZM132.5 202.196C132.5 202.71 132.5 203.041 132.495 203.306C132.491 203.585 132.484 203.583 132.497 203.442C132.504 203.37 132.564 202.649 132.892 201.686C133.229 200.695 134.109 198.682 136.271 197.047L148.935 213.799C151.296 212.015 152.325 209.767 152.773 208.447C153.213 207.156 153.347 206.013 153.404 205.416C153.512 204.276 153.5 202.939 153.5 202.196H132.5ZM131.033 208.854C131.438 209.477 132.156 210.604 132.868 211.502C133.241 211.972 133.976 212.856 135.048 213.7C136.144 214.562 138.231 215.886 141.184 216.097L142.674 195.149C145.379 195.342 147.213 196.551 148.036 197.198C148.836 197.827 149.279 198.398 149.324 198.455C149.412 198.566 149.407 198.572 149.251 198.34C149.103 198.121 148.923 197.844 148.642 197.412L131.033 208.854ZM136.271 197.047C138.106 195.66 140.381 194.986 142.675 195.15L141.183 216.096C143.96 216.294 146.714 215.478 148.935 213.8L136.271 197.047ZM25.5 16.8041C25.5 16.2895 25.5003 15.9589 25.5047 15.6944C25.5094 15.4145 25.5164 15.4173 25.5031 15.5585C25.4963 15.6303 25.436 16.3505 25.1084 17.3137C24.7713 18.3051 23.8914 20.3181 21.7285 21.953L9.06552 5.20043C6.70414 6.98535 5.67535 9.23293 5.22657 10.5526C4.78736 11.8441 4.65256 12.9866 4.59615 13.5837C4.48841 14.7244 4.5 16.061 4.5 16.8041H25.5ZM26.967 10.1462C26.5621 9.52301 25.8436 8.39595 25.1318 7.49816C24.7591 7.02813 24.0236 6.14361 22.9517 5.29989C21.8563 4.43781 19.7691 3.11365 16.8165 2.90349L15.3255 23.8505C12.6211 23.658 10.7865 22.4494 9.96366 21.8018C9.1642 21.1725 8.72117 20.6015 8.67637 20.545C8.58823 20.4338 8.59263 20.4277 8.74907 20.6599C8.89685 20.8792 9.07725 21.1563 9.35761 21.5878L26.967 10.1462ZM21.7285 21.953C19.8941 23.3396 17.6191 24.0137 15.3255 23.8505L16.8165 2.90349C14.04 2.70587 11.286 3.52198 9.06552 5.20043L21.7285 21.953Z" fill="#75ACA2"/>
</g>
<defs>
<filter id="filter0_d_202_26" x="129.5" y="1.5" width="157.001" height="221.669" filterUnits="userSpaceOnUse" color-interpolation-filters="sRGB">
<feFlood flood-opacity="0" result="BackgroundImageFix"/>
<feColorMatrix in="SourceAlpha" type="matrix" values="0 0 0 0 0 0 0 0 0 0 0 0 0 0 0 0 0 0 127 0" result="hardAlpha"/>
<feOffset dy="4"/>
<feGaussianBlur stdDeviation="2"/>
<feComposite in2="hardAlpha" operator="out"/>
<feColorMatrix type="matrix" values="0 0 0 0 0 0 0 0 0 0 0 0 0 0 0 0 0 0 0.25 0"/>
<feBlend mode="normal" in2="BackgroundImageFix" result="effect1_dropShadow_202_26"/>
<feBlend mode="normal" in="SourceGraphic" in2="effect1_dropShadow_202_26" result="shape"/>
</filter>
<filter id="filter1_d_202_26" x="0.499634" y="0.5" width="157.001" height="223.626" filterUnits="userSpaceOnUse" color-interpolation-filters="sRGB">
<feFlood flood-opacity="0" result="BackgroundImageFix"/>
<feColorMatrix in="SourceAlpha" type="matrix" values="0 0 0 0 0 0 0 0 0 0 0 0 0 0 0 0 0 0 127 0" result="hardAlpha"/>
<feOffset dy="4"/>
<feGaussianBlur stdDeviation="2"/>
<feComposite in2="hardAlpha" operator="out"/>
<feColorMatrix type="matrix" values="0 0 0 0 0 0 0 0 0 0 0 0 0 0 0 0 0 0 0.25 0"/>
<feBlend mode="normal" in2="BackgroundImageFix" result="effect1_dropShadow_202_26"/>
<feBlend mode="normal" in="SourceGraphic" in2="effect1_dropShadow_202_26" result="shape"/>
</filter>
</defs>
</svg>
